# xmcd
#
# Track frame offsets:
#	150
#	12960
#	29979
#	52292
#	72794
#	86072
#	100267
#	117210
#	136466
#	163089
#	177673
#	191448
#	208049
#	229944
#	260488
#	283975
#	298368
#	316298
#
# Disc length: 4375 seconds
#
# Revision: 0
# Processed by: cddbd v1.5.2PL0 Copyright (c) Steve Scherf et al.
# Submitted via: audiograbber 1.83.01
#
DISCID=25111512
DTITLE=Jerry Jeff Walker - From Vinyl Records 3
DYEAR=1900
DGENRE=Country
TTITLE0=The Heart Of Saturday Night
TTITLE1=Standin' At The Big Hotel
TTITLE2=Couldn't Do Nothin' Right
TTITLE3=Won't You Give Me One More Chance
TTITLE4=Head Full Of Nothin'
TTITLE5=Old Five And Dimers Like Me
TTITLE6=Very Short Time
TTITLE7=Some Day I'll Get Out Of These Bars
TTITLE8=Stoney
TTITLE9=Dear John Letter Lounge
TTITLE10=Leroy
TTITLE11=It's A Good Night For Singing
TTITLE12=Me and Bobby McGee
TTITLE13=Follow
TTITLE14=Banks Of The Old Bandera
TTITLE15=Maybe Mexico
TTITLE16=Sailing
TTITLE17=Got Lucky Last Night
EXTD=
EXTT0=
EXTT1=
EXTT2=
EXTT3=
EXTT4=
EXTT5=
EXTT6=
EXTT7=
EXTT8=
EXTT9=
EXTT10=
EXTT11=
EXTT12=
EXTT13=
EXTT14=
EXTT15=
EXTT16=
EXTT17=
PLAYORDER=
